<?xml version="1.0" encoding="UTF-8"?>
<svg xmlns="http://www.w3.org/2000/svg" viewBox="0 0 49.65 49.11">
  <rect x="12.31" y="41.16" width="21.18" height="3.72" fill="#4f93ff"/>
  <rect x="28.89" y="35.85" width="15.08" height="3.72" transform="translate(-15.48 45.07) rotate(-54.07)" fill="#4f93ff"/>
  <rect x="18.72" y="19.3" width="39.8" height="3.72" transform="translate(26.24 63.42) rotate(-102.39)" fill="#4f93ff"/>
  <rect x="26.24" y=".14" width="15.04" height="3.72" rx="1.16" ry="1.16" transform="translate(67.52 4) rotate(-180)" fill="#4f93ff"/>
  <path d="M44.1,38.25c-2.96,0-5.36,2.4-5.36,5.36s2.4,5.36,5.36,5.36,5.36-2.4,5.36-5.36-2.4-5.36-5.36-5.36ZM44.1,46.06c-1.35,0-2.45-1.09-2.45-2.45s1.09-2.45,2.45-2.45,2.45,1.09,2.45,2.45c0,1.35-1.09,2.45-2.45,2.45Z" fill="#4f93ff"/>
  <path d="M6.29,38.24c-2.96,0-5.36,2.4-5.36,5.36s2.4,5.36,5.36,5.36,5.36-2.4,5.36-5.36-2.4-5.36-5.36-5.36ZM6.29,46.04c-1.35,0-2.45-1.09-2.45-2.45s1.09-2.45,2.45-2.45,2.45,1.09,2.45,2.45-1.09,2.45-2.45,2.45Z" fill="#4f93ff"/>
  <path d="M12.3,43.08c.03.82.05.93.05,1.61l3.01-.03c.11-.48.01-.94-.01-1.44-.17-3.44-2.18-6.66-5.59-7.91s-6.87-.53-9.2,1.34c-.35.28-.36.77-.03,1.07l1.17,1.02c.27.24.69.26.98.04,1.22-.95,2.87-1.44,4.64-1.18,2.78.42,4.89,2.83,5,5.49Z" fill="#4f93ff"/>
</svg>
