<?xml version="1.0" encoding="UTF-8"?>
<svg xmlns="http://www.w3.org/2000/svg" viewBox="0 0 14.39 21.27">
  <path d="M1.59,8.58h11.32v4.19c0,2.61-2.12,4.74-4.74,4.74h-.99c-3.09,0-5.6-2.51-5.6-5.6v-3.33h0Z" fill="#4f93ff"/>
  <path d="M.78,5.84h12.82c.42,0,.76.34.76.76v.72c0,.7-.57,1.26-1.26,1.26H1.27C.58,8.58.03,8.02.03,7.34v-.74c0-.42.34-.76.76-.76Z" fill="#4f93ff"/>
  <path d="M4.01.04h.16c.52,0,.94.42.94.94v5.28h-2.1V1.03C3.02.48,3.46.04,4.01.04Z" fill="#4f93ff"/>
  <path d="M10.3.04h.17c.53,0,.96.43.96.96v5.26h-2.13V1.04c0-.56.45-1.01,1.01-1.01Z" fill="#4f93ff"/>
  <path d="M6.95,8.47v4.57s-1.69,0-1.69,0c.56-1.52,1.13-3.04,1.69-4.57Z" fill="#fff"/>
  <path d="M6.95,16.42v-4.52s1.81,0,1.81,0c-.6,1.51-1.2,3.02-1.81,4.52Z" fill="#fff"/>
  <rect x="6.1" y="16.63" width="2.76" height="4.61" fill="#4f93ff"/>
</svg>
